<svg width="32" height="32" xmlns="http://www.w3.org/2000/svg">
    <path d="M16 0C7.163 0 0 7.163 0 16s7.163 16 16 16 16-7.163 16-16S24.837 0 16 0zm0 29.333c-7.364 0-13.333-5.97-13.333-13.333S8.636 2.667 16 2.667 29.333 8.636 29.333 16 23.364 29.333 16 29.333z" fill="currentColor"/>
    <path d="M16 5.333c-5.891 0-10.667 4.776-10.667 10.667S10.109 26.667 16 26.667 26.667 21.891 26.667 16 21.891 5.333 16 5.333zm0 18.667c-4.411 0-8-3.589-8-8s3.589-8 8-8 8 3.589 8 8-3.589 8-8 8z" fill="currentColor"/>
    <path d="M16 10.667c-2.945 0-5.333 2.388-5.333 5.333s2.388 5.333 5.333 5.333 5.333-2.388 5.333-5.333-2.388-5.333-5.333-5.333zm0 8c-1.473 0-2.667-1.194-2.667-2.667s1.194-2.667 2.667-2.667 2.667 1.194 2.667 2.667-1.194 2.667-2.667 2.667z" fill="currentColor"/>
</svg> 