<?xml version="1.0" encoding="UTF-8"?>
<svg width="200" height="200" viewBox="0 0 200 200" fill="none" xmlns="http://www.w3.org/2000/svg">
    <rect width="200" height="200" fill="#F8F8FB"/>
    <path d="M100 50C77.9086 50 60 67.9086 60 90C60 112.091 77.9086 130 100 130C122.091 130 140 112.091 140 90C140 67.9086 122.091 50 100 50ZM100 120C83.4315 120 70 106.569 70 90C70 73.4315 83.4315 60 100 60C116.569 60 130 73.4315 130 90C130 106.569 116.569 120 100 120Z" fill="#7E88C3"/>
    <path d="M100 70C94.4772 70 90 74.4772 90 80V90C90 95.5228 94.4772 100 100 100C105.523 100 110 95.5228 110 90V80C110 74.4772 105.523 70 100 70Z" fill="#7E88C3"/>
    <path d="M100 110C97.2386 110 95 112.239 95 115V120C95 122.761 97.2386 125 100 125C102.761 125 105 122.761 105 120V115C105 112.239 102.761 110 100 110Z" fill="#7E88C3"/>
</svg> 